<svg width="96" height="111" viewBox="0 0 96 111" fill="none" xmlns="http://www.w3.org/2000/svg">
<path d="M72.8286 50.795C73.3372 51.0031 73.7996 51.2343 74.2851 51.4424C81.0362 54.7024 85.984 59.5807 88.5734 65.6382C92.2033 74.0771 92.5501 87.7873 81.568 98.7463C73.1985 107.116 63.0025 110.884 48.5986 111H48.5293C32.2989 110.884 19.8371 105.428 11.4445 94.7696C3.97667 85.2904 0.138721 72.0887 0 55.5578V55.4884V55.4422C0.115601 38.9113 3.95355 25.7096 11.4214 16.2304C19.814 5.57196 32.2989 0.115601 48.5293 0H48.5986C64.8521 0.115601 77.4757 5.54884 86.1227 16.161C90.3768 21.4093 93.5211 27.7211 95.5095 35.0502L86.1689 37.5472C84.5274 31.5822 82.0535 26.4957 78.7242 22.4266C71.9731 14.1496 61.8465 9.89544 48.5524 9.80296C35.3739 9.91856 25.4091 14.1496 18.9123 22.3803C12.8548 30.0794 9.71048 41.2233 9.59488 55.4884C9.71048 69.7536 12.8548 80.8975 18.9123 88.6197C25.386 96.8504 35.3739 101.081 48.5524 101.197C60.4362 101.105 68.297 98.2839 74.84 91.7409C82.3079 84.2962 82.1691 75.1406 79.7878 69.5686C78.3774 66.2856 75.8342 63.5574 72.4124 61.4997C71.557 67.719 69.6842 72.6667 66.7017 76.4816C62.7482 81.5218 57.13 84.2499 49.8934 84.643C44.437 84.9436 39.1887 83.6257 35.1196 80.9438C30.3106 77.7532 27.4899 72.8979 27.1893 67.2335C26.6113 56.0664 35.4432 48.0437 49.1997 47.2577C54.0781 46.9802 58.6559 47.1883 62.8869 47.905C62.332 44.4832 61.1991 41.7551 59.5113 39.7667C57.1993 37.0617 53.5926 35.6744 48.8298 35.6513H48.668C44.83 35.6513 39.6511 36.7149 36.3449 41.7319L28.3916 36.2756C32.8307 29.5476 40.021 25.8484 48.6911 25.8484H48.8761C63.3493 25.9408 71.9731 34.9808 72.8517 50.7488L72.8055 50.795H72.8286ZM36.7611 66.7017C37.0617 72.5049 43.3272 75.21 49.3847 74.8631C55.3035 74.5395 62.0083 72.2275 63.1412 57.9392C60.0894 57.2687 56.7138 56.9219 53.1071 56.9219C51.9973 56.9219 50.8875 56.945 49.7778 57.0144C39.8592 57.5693 36.553 62.3783 36.7842 66.6786L36.7611 66.7017Z" fill="#474951"/>
</svg>
